# Blender v2.79 (sub 0) OBJ File: ''
# www.blender.org
mtllib Car_3.mtl
o Car_09
v 5.395905 -0.460663 -3.301591
v 6.410473 -0.460663 -3.301591
v 6.349288 -0.113659 -3.301591
v 6.410473 -0.460663 -3.886853
v 5.395905 -0.460663 -3.886853
v 6.349288 -0.113659 -3.886853
v 6.173109 0.191491 -3.301591
v 6.173109 0.191491 -3.886853
v 5.903189 0.417981 -3.301591
v 5.903189 0.417982 -3.886853
v 5.572082 0.538494 -3.301591
v 5.572082 0.538495 -3.886853
v 5.219725 0.538494 -3.301591
v 5.219725 0.538495 -3.886853
v 4.888618 0.417981 -3.301591
v 4.888618 0.417982 -3.886853
v 4.618697 0.191491 -3.301591
v 4.618697 0.191491 -3.886853
v 4.442518 -0.113659 -3.301591
v 4.442518 -0.113659 -3.886853
v 4.381333 -0.460663 -3.301591
v 4.381333 -0.460663 -3.886853
v 4.442518 -0.807666 -3.301591
v 4.442518 -0.807666 -3.886854
v 4.618697 -1.112816 -3.301591
v 4.618697 -1.112816 -3.886854
v 4.888618 -1.339307 -3.301591
v 4.888618 -1.339307 -3.886854
v 5.219725 -1.459820 -3.301591
v 5.219725 -1.459820 -3.886854
v 5.572082 -1.459820 -3.301591
v 5.572082 -1.459820 -3.886854
v 5.903189 -1.339307 -3.301591
v 5.903189 -1.339307 -3.886854
v 6.173109 -1.112816 -3.301591
v 6.173109 -1.112816 -3.886854
v 6.349288 -0.807666 -3.301591
v 6.349288 -0.807666 -3.886854
v 5.395905 -0.460665 3.890306
v 6.410473 -0.460665 3.890306
v 6.349288 -0.113661 3.890306
v 6.410473 -0.460665 3.305044
v 5.395905 -0.460665 3.305044
v 6.349288 -0.113661 3.305044
v 6.173109 0.191488 3.890306
v 6.173109 0.191489 3.305044
v 5.903189 0.417979 3.890306
v 5.903189 0.417979 3.305044
v 5.572082 0.538492 3.890306
v 5.572082 0.538492 3.305044
v 5.219725 0.538492 3.890306
v 5.219725 0.538492 3.305044
v 4.888618 0.417979 3.890306
v 4.888618 0.417979 3.305044
v 4.618697 0.191488 3.890306
v 4.618697 0.191489 3.305044
v 4.442518 -0.113661 3.890306
v 4.442518 -0.113661 3.305044
v 4.381333 -0.460665 3.890306
v 4.381333 -0.460665 3.305044
v 4.442518 -0.807669 3.890306
v 4.442518 -0.807669 3.305044
v 4.618697 -1.112819 3.890306
v 4.618697 -1.112818 3.305043
v 4.888618 -1.339309 3.890306
v 4.888618 -1.339309 3.305043
v 5.219725 -1.459822 3.890306
v 5.219725 -1.459822 3.305043
v 5.572082 -1.459822 3.890306
v 5.572082 -1.459822 3.305043
v 5.903189 -1.339309 3.890306
v 5.903189 -1.339309 3.305043
v 6.173109 -1.112819 3.890306
v 6.173109 -1.112818 3.305043
v 6.349288 -0.807669 3.890306
v 6.349288 -0.807669 3.305044
v -5.638318 -0.460663 -3.301591
v -4.623746 -0.460663 -3.301591
v -4.684934 -0.113659 -3.301591
v -4.623746 -0.460663 -3.886853
v -5.638318 -0.460663 -3.886853
v -4.684934 -0.113659 -3.886853
v -4.861111 0.191491 -3.301591
v -4.861111 0.191491 -3.886853
v -5.131031 0.417981 -3.301591
v -5.131031 0.417982 -3.886853
v -5.462138 0.538494 -3.301591
v -5.462138 0.538495 -3.886853
v -5.814495 0.538494 -3.301591
v -5.814495 0.538495 -3.886853
v -6.145602 0.417981 -3.301591
v -6.145602 0.417982 -3.886853
v -6.415523 0.191491 -3.301591
v -6.415523 0.191491 -3.886853
v -6.591702 -0.113659 -3.301591
v -6.591702 -0.113659 -3.886853
v -6.652889 -0.460663 -3.301591
v -6.652889 -0.460663 -3.886853
v -6.591702 -0.807666 -3.301591
v -6.591702 -0.807666 -3.886854
v -6.415523 -1.112816 -3.301591
v -6.415523 -1.112816 -3.886854
v -6.145602 -1.339307 -3.301591
v -6.145602 -1.339307 -3.886854
v -5.814495 -1.459820 -3.301591
v -5.814495 -1.459820 -3.886854
v -5.462138 -1.459820 -3.301591
v -5.462138 -1.459820 -3.886854
v -5.131031 -1.339307 -3.301591
v -5.131031 -1.339307 -3.886854
v -4.861111 -1.112816 -3.301591
v -4.861111 -1.112816 -3.886854
v -4.684934 -0.807666 -3.301591
v -4.684934 -0.807666 -3.886854
v -5.638318 -0.460665 3.890306
v -4.623746 -0.460665 3.890306
v -4.684934 -0.113661 3.890306
v -4.623746 -0.460665 3.305044
v -5.638318 -0.460665 3.305044
v -4.684934 -0.113661 3.305044
v -4.861111 0.191488 3.890306
v -4.861111 0.191489 3.305044
v -5.131031 0.417979 3.890306
v -5.131031 0.417979 3.305044
v -5.462138 0.538492 3.890306
v -5.462138 0.538492 3.305044
v -5.814495 0.538492 3.890306
v -5.814495 0.538492 3.305044
v -6.145602 0.417979 3.890306
v -6.145602 0.417979 3.305044
v -6.415523 0.191488 3.890306
v -6.415523 0.191489 3.305044
v -6.591702 -0.113661 3.890306
v -6.591702 -0.113661 3.305044
v -6.652889 -0.460665 3.890306
v -6.652889 -0.460665 3.305044
v -6.591702 -0.807669 3.890306
v -6.591702 -0.807669 3.305044
v -6.415523 -1.112819 3.890306
v -6.415523 -1.112818 3.305043
v -6.145602 -1.339309 3.890306
v -6.145602 -1.339309 3.305043
v -5.814495 -1.459822 3.890306
v -5.814495 -1.459822 3.305043
v -5.462138 -1.459822 3.890306
v -5.462138 -1.459822 3.305043
v -5.131031 -1.339309 3.890306
v -5.131031 -1.339309 3.305043
v -4.861111 -1.112819 3.890306
v -4.861111 -1.112818 3.305043
v -4.684934 -0.807669 3.890306
v -4.684934 -0.807669 3.305044
v -9.446808 6.507392 3.579513
v -9.446808 -0.867477 -3.605915
v -9.446808 -0.867480 3.579511
v -9.446808 6.507394 -3.605912
v 2.887767 -0.867477 -3.605915
v 8.661819 1.888801 -3.605914
v 8.661819 -0.867480 3.579511
v 8.661819 -0.867477 -3.605915
v 2.887767 8.534697 3.579514
v 2.887767 6.507392 3.579513
v -9.446808 8.534700 -3.605911
v -9.446808 8.534697 3.579514
v 2.887767 -0.867480 3.579511
v 2.887767 6.507394 -3.605912
v 5.782568 -0.867477 -3.605915
v 5.782568 -0.867480 3.579511
v 8.661819 1.888798 3.579512
v 5.782568 6.507394 -3.605912
v 5.782568 6.507392 3.579513
v 2.887767 8.534700 -3.605911
vt 0.788040 0.121824
vt 0.788040 0.153982
vt 0.799519 0.152043
vt 0.966280 0.190062
vt 0.975209 0.171512
vt 0.966280 0.171512
vt 0.703640 0.153982
vt 0.703640 0.121824
vt 0.692161 0.152043
vt 0.809614 0.146458
vt 0.521133 0.072136
vt 0.531227 0.053585
vt 0.521133 0.053585
vt 0.682066 0.146458
vt 0.817106 0.137903
vt 0.531227 0.072136
vt 0.542706 0.053585
vt 0.674574 0.137903
vt 0.821093 0.127408
vt 0.542706 0.072136
vt 0.554186 0.053585
vt 0.670587 0.127408
vt 0.821093 0.116239
vt 0.554186 0.072136
vt 0.564280 0.053585
vt 0.670587 0.116239
vt 0.817106 0.105744
vt 0.923788 0.279753
vt 0.932717 0.298303
vt 0.932717 0.279753
vt 0.674574 0.105744
vt 0.809614 0.097189
vt 0.943670 0.279753
vt 0.682066 0.097189
vt 0.799519 0.091605
vt 0.943670 0.298303
vt 0.955327 0.279753
vt 0.692161 0.091605
vt 0.788040 0.089665
vt 0.955327 0.298303
vt 0.966280 0.279753
vt 0.703640 0.089665
vt 0.776561 0.091605
vt 0.975209 0.298303
vt 0.975209 0.279753
vt 0.715119 0.091605
vt 0.766466 0.097189
vt 0.923788 0.081821
vt 0.933883 0.063270
vt 0.923788 0.063270
vt 0.725213 0.097189
vt 0.758974 0.105744
vt 0.933883 0.081821
vt 0.945362 0.063270
vt 0.732706 0.105744
vt 0.754987 0.116239
vt 0.945362 0.081821
vt 0.956841 0.063270
vt 0.736692 0.116239
vt 0.754987 0.127408
vt 0.956841 0.081821
vt 0.966935 0.063270
vt 0.736692 0.127408
vt 0.758974 0.137903
vt 0.923788 0.190062
vt 0.932717 0.171512
vt 0.923788 0.171512
vt 0.732706 0.137903
vt 0.766466 0.146458
vt 0.932717 0.190062
vt 0.943670 0.171512
vt 0.725213 0.146458
vt 0.776561 0.152043
vt 0.955327 0.190062
vt 0.955327 0.171512
vt 0.715119 0.152043
vt 0.956841 0.713332
vt 0.956841 0.745490
vt 0.968320 0.743551
vt 0.966280 0.226143
vt 0.975209 0.207592
vt 0.966280 0.207592
vt 0.956841 0.663644
vt 0.956841 0.631486
vt 0.945362 0.661705
vt 0.978414 0.737967
vt 0.609145 0.153982
vt 0.619239 0.135431
vt 0.609145 0.135431
vt 0.935267 0.656120
vt 0.985907 0.729411
vt 0.619239 0.153982
vt 0.630718 0.135431
vt 0.927775 0.647565
vt 0.989893 0.718916
vt 0.630718 0.153982
vt 0.642197 0.135431
vt 0.923788 0.637070
vt 0.989893 0.707748
vt 0.642197 0.153982
vt 0.652292 0.135431
vt 0.923788 0.625902
vt 0.985907 0.697253
vt 0.923788 0.351914
vt 0.932717 0.370464
vt 0.932717 0.351914
vt 0.927775 0.615407
vt 0.978414 0.688697
vt 0.943670 0.351914
vt 0.935267 0.606851
vt 0.968320 0.683113
vt 0.955327 0.370464
vt 0.955327 0.351914
vt 0.945362 0.601267
vt 0.956841 0.681174
vt 0.966280 0.370464
vt 0.966280 0.351914
vt 0.956841 0.599328
vt 0.945362 0.683113
vt 0.975209 0.351914
vt 0.968320 0.601267
vt 0.935267 0.688697
vt 0.609145 0.081821
vt 0.619239 0.063270
vt 0.609145 0.063270
vt 0.978414 0.606851
vt 0.927775 0.697253
vt 0.619239 0.081821
vt 0.630718 0.063270
vt 0.985907 0.615407
vt 0.923788 0.707748
vt 0.630718 0.081821
vt 0.642197 0.063270
vt 0.989893 0.625902
vt 0.923788 0.718916
vt 0.642197 0.081821
vt 0.652292 0.063270
vt 0.989893 0.637070
vt 0.927775 0.729411
vt 0.923788 0.226143
vt 0.932717 0.207592
vt 0.923788 0.207592
vt 0.985907 0.647565
vt 0.935267 0.737967
vt 0.932717 0.226143
vt 0.943670 0.207592
vt 0.978414 0.656120
vt 0.945362 0.743551
vt 0.955327 0.226143
vt 0.955327 0.207592
vt 0.968320 0.661705
vt 0.956841 0.549640
vt 0.956841 0.581798
vt 0.968320 0.579858
vt 0.966280 0.153982
vt 0.975209 0.135431
vt 0.966280 0.135431
vt 0.956841 0.499952
vt 0.956841 0.467793
vt 0.945362 0.498012
vt 0.978414 0.574274
vt 0.754987 0.072136
vt 0.765082 0.053585
vt 0.754987 0.053585
vt 0.935267 0.492428
vt 0.985907 0.565719
vt 0.765082 0.072136
vt 0.776561 0.053585
vt 0.927775 0.483873
vt 0.989893 0.555224
vt 0.776561 0.072136
vt 0.788040 0.053585
vt 0.923788 0.473378
vt 0.989893 0.544055
vt 0.788040 0.072136
vt 0.798135 0.053585
vt 0.923788 0.462209
vt 0.985907 0.533560
vt 0.923788 0.406545
vt 0.932717 0.387994
vt 0.923788 0.387994
vt 0.927775 0.451714
vt 0.978414 0.525005
vt 0.943670 0.406545
vt 0.943670 0.387994
vt 0.935267 0.443159
vt 0.968320 0.519421
vt 0.955327 0.406545
vt 0.955327 0.387994
vt 0.945362 0.437575
vt 0.956841 0.517481
vt 0.966280 0.387994
vt 0.956841 0.435635
vt 0.945362 0.519421
vt 0.975209 0.406545
vt 0.975209 0.387994
vt 0.968320 0.437575
vt 0.935267 0.525005
vt 0.693545 0.072136
vt 0.703640 0.053585
vt 0.693545 0.053585
vt 0.978414 0.443159
vt 0.927775 0.533560
vt 0.703640 0.072136
vt 0.715119 0.053585
vt 0.985907 0.451714
vt 0.923788 0.544055
vt 0.715119 0.072136
vt 0.726598 0.053585
vt 0.989893 0.462209
vt 0.923788 0.555224
vt 0.726598 0.072136
vt 0.736692 0.053585
vt 0.989893 0.473378
vt 0.927775 0.565719
vt 0.923788 0.153982
vt 0.932717 0.135431
vt 0.923788 0.135431
vt 0.985907 0.483873
vt 0.935267 0.574274
vt 0.932717 0.153982
vt 0.943670 0.135431
vt 0.978414 0.492428
vt 0.945362 0.579858
vt 0.955327 0.153982
vt 0.955327 0.135431
vt 0.968320 0.498012
vt 0.554186 0.121824
vt 0.554186 0.153982
vt 0.565665 0.152043
vt 0.966280 0.334384
vt 0.975209 0.315833
vt 0.966280 0.315833
vt 0.872440 0.153982
vt 0.872440 0.121824
vt 0.860961 0.152043
vt 0.575759 0.146458
vt 0.923788 0.117901
vt 0.933883 0.099351
vt 0.923788 0.099351
vt 0.850867 0.146458
vt 0.583252 0.137903
vt 0.933883 0.117901
vt 0.945362 0.099351
vt 0.843374 0.137903
vt 0.587238 0.127408
vt 0.945362 0.117901
vt 0.956841 0.099351
vt 0.839388 0.127408
vt 0.587238 0.116239
vt 0.956841 0.117901
vt 0.966935 0.099351
vt 0.839388 0.116239
vt 0.583252 0.105744
vt 0.923788 0.262223
vt 0.932717 0.243672
vt 0.923788 0.243672
vt 0.843374 0.105744
vt 0.575759 0.097189
vt 0.932717 0.262223
vt 0.943670 0.243672
vt 0.850867 0.097189
vt 0.565665 0.091605
vt 0.943670 0.262223
vt 0.955327 0.243672
vt 0.860961 0.091605
vt 0.554186 0.089665
vt 0.966280 0.262223
vt 0.966280 0.243672
vt 0.872440 0.089665
vt 0.542706 0.091605
vt 0.975209 0.262223
vt 0.975209 0.243672
vt 0.883919 0.091605
vt 0.532612 0.097189
vt 0.609145 0.117901
vt 0.619239 0.099351
vt 0.609145 0.099351
vt 0.894014 0.097189
vt 0.525120 0.105744
vt 0.619239 0.117901
vt 0.630718 0.099351
vt 0.901506 0.105744
vt 0.521133 0.116239
vt 0.630718 0.117901
vt 0.642197 0.099351
vt 0.905493 0.116239
vt 0.521133 0.127408
vt 0.642197 0.117901
vt 0.652292 0.099351
vt 0.905493 0.127408
vt 0.525120 0.137903
vt 0.923788 0.334384
vt 0.932717 0.315833
vt 0.923788 0.315833
vt 0.901506 0.137903
vt 0.532612 0.146458
vt 0.932717 0.334384
vt 0.943670 0.315833
vt 0.894014 0.146458
vt 0.542706 0.152043
vt 0.955327 0.334384
vt 0.955327 0.315833
vt 0.883919 0.152043
vt 0.332205 0.171512
vt 0.576169 0.399264
vt 0.576169 0.171512
vt 0.076212 0.416793
vt 0.320176 0.807755
vt 0.320176 0.416793
vt 0.732399 0.399264
vt 0.644738 0.171512
vt 0.644738 0.399264
vt 0.649500 0.807755
vt 0.582436 0.416793
vt 0.582436 0.807755
vt 0.009148 0.399264
vt 0.246845 0.008302
vt 0.009148 0.008302
vt 0.905493 0.416793
vt 0.667795 0.807755
vt 0.905493 0.807755
vt 0.265140 0.171512
vt 0.332205 0.399264
vt 0.009148 0.416793
vt 0.076212 0.807755
vt 0.923788 0.990772
vt 0.990852 0.763020
vt 0.923788 0.763020
vt 0.338472 0.416793
vt 0.667795 0.899510
vt 0.338472 0.899510
vt 0.338472 0.807755
vt 0.732399 0.171512
vt 0.905493 0.399264
vt 0.905493 0.171512
vt 0.228997 0.990772
vt 0.320176 0.899510
vt 0.076212 0.899510
vt 0.667795 0.990772
vt 0.905493 0.899510
vt 0.429651 0.990772
vt 0.582436 0.899510
vt 0.502838 0.062227
vt 0.265140 0.153982
vt 0.502838 0.153982
vt 0.975209 0.190062
vt 0.564280 0.072136
vt 0.923788 0.298303
vt 0.966280 0.298303
vt 0.966935 0.081821
vt 0.943670 0.190062
vt 0.975209 0.226143
vt 0.652292 0.153982
vt 0.923788 0.370464
vt 0.943670 0.370464
vt 0.975209 0.370464
vt 0.652292 0.081821
vt 0.943670 0.226143
vt 0.975209 0.153982
vt 0.798135 0.072136
vt 0.932717 0.406545
vt 0.966280 0.406545
vt 0.736692 0.072136
vt 0.943670 0.153982
vt 0.975209 0.334384
vt 0.966935 0.117901
vt 0.955327 0.262223
vt 0.652292 0.117901
vt 0.943670 0.334384
vt 0.649500 0.416793
vt 0.246845 0.399264
vt 0.667795 0.416793
vt 0.265140 0.399264
vt 0.009148 0.807755
vt 0.990852 0.990772
vt 0.320176 0.990772
vt 0.905493 0.990772
vt 0.338472 0.990772
vt 0.265140 0.062227
vn 0.0000 -0.0000 1.0000
vn 0.7423 0.0000 0.6700
vn 0.6976 0.2539 0.6700
vn 0.7423 0.0000 -0.6700
vn -0.0000 0.0000 -1.0000
vn 0.6976 0.2539 -0.6700
vn 0.5687 0.4772 0.6700
vn 0.5687 0.4772 -0.6700
vn 0.3712 0.6429 0.6700
vn 0.3712 0.6429 -0.6700
vn 0.1289 0.7311 0.6700
vn 0.1289 0.7311 -0.6700
vn -0.1289 0.7311 0.6700
vn -0.1289 0.7311 -0.6700
vn -0.3712 0.6429 0.6700
vn -0.3712 0.6429 -0.6700
vn -0.5687 0.4772 0.6700
vn -0.5687 0.4772 -0.6700
vn -0.6976 0.2539 0.6700
vn -0.6976 0.2539 -0.6700
vn -0.7423 -0.0000 0.6700
vn -0.7423 0.0000 -0.6700
vn -0.6976 -0.2539 0.6700
vn -0.6976 -0.2539 -0.6700
vn -0.5687 -0.4772 0.6700
vn -0.5687 -0.4772 -0.6700
vn -0.3712 -0.6429 0.6700
vn -0.3712 -0.6429 -0.6700
vn -0.1289 -0.7311 0.6700
vn -0.1289 -0.7311 -0.6700
vn 0.1289 -0.7311 0.6700
vn 0.1289 -0.7311 -0.6700
vn 0.3712 -0.6429 0.6700
vn 0.3712 -0.6429 -0.6700
vn 0.5687 -0.4772 0.6700
vn 0.5687 -0.4772 -0.6700
vn 0.6976 -0.2539 0.6700
vn 0.6976 -0.2539 -0.6700
vn -0.7071 -0.0000 0.7071
vn -0.5774 -0.5774 -0.5774
vn -0.5774 -0.5774 0.5774
vn -0.7071 0.0000 -0.7071
vn 0.0000 -0.7071 -0.7071
vn 0.7305 0.2091 -0.6501
vn 0.5774 -0.5774 0.5774
vn 0.5774 -0.5774 -0.5774
vn 0.5774 0.5773 0.5774
vn 0.3015 0.3015 0.9045
vn -0.5774 0.5774 -0.5774
vn -0.5774 0.5774 0.5774
vn 0.0000 -0.7071 0.7071
vn 0.3015 0.3015 -0.9045
vn 0.7305 0.2091 0.6501
vn 0.3836 0.6912 -0.6125
vn 0.3836 0.6912 0.6125
vn 0.5774 0.5774 -0.5774
usemtl CAR_06
s 1
f 1/1/1 2/2/2 3/3/3
f 4/4/4 3/5/3 2/6/2
f 4/7/4 5/8/5 6/9/6
f 1/1/1 3/3/3 7/10/7
f 6/11/6 7/12/7 3/13/3
f 6/9/6 5/8/5 8/14/8
f 1/1/1 7/10/7 9/15/9
f 8/16/8 9/17/9 7/12/7
f 8/14/8 5/8/5 10/18/10
f 1/1/1 9/15/9 11/19/11
f 10/20/10 11/21/11 9/17/9
f 10/18/10 5/8/5 12/22/12
f 1/1/1 11/19/11 13/23/13
f 12/24/12 13/25/13 11/21/11
f 12/22/12 5/8/5 14/26/14
f 1/1/1 13/23/13 15/27/15
f 13/28/13 16/29/16 15/30/15
f 14/26/14 5/8/5 16/31/16
f 1/1/1 15/27/15 17/32/17
f 16/29/16 17/33/17 15/30/15
f 16/31/16 5/8/5 18/34/18
f 1/1/1 17/32/17 19/35/19
f 18/36/18 19/37/19 17/33/17
f 18/34/18 5/8/5 20/38/20
f 1/1/1 19/35/19 21/39/21
f 20/40/20 21/41/21 19/37/19
f 20/38/20 5/8/5 22/42/22
f 1/1/1 21/39/21 23/43/23
f 21/41/21 24/44/24 23/45/23
f 22/42/22 5/8/5 24/46/24
f 1/1/1 23/43/23 25/47/25
f 24/48/24 25/49/25 23/50/23
f 24/46/24 5/8/5 26/51/26
f 1/1/1 25/47/25 27/52/27
f 26/53/26 27/54/27 25/49/25
f 26/51/26 5/8/5 28/55/28
f 1/1/1 27/52/27 29/56/29
f 28/57/28 29/58/29 27/54/27
f 28/55/28 5/8/5 30/59/30
f 1/1/1 29/56/29 31/60/31
f 30/61/30 31/62/31 29/58/29
f 30/59/30 5/8/5 32/63/32
f 1/1/1 31/60/31 33/64/33
f 32/65/32 33/66/33 31/67/31
f 32/63/32 5/8/5 34/68/34
f 1/1/1 33/64/33 35/69/35
f 34/70/34 35/71/35 33/66/33
f 34/68/34 5/8/5 36/72/36
f 1/1/1 35/69/35 37/73/37
f 35/71/35 38/74/38 37/75/37
f 36/72/36 5/8/5 38/76/38
f 1/1/1 37/73/37 2/2/2
f 38/74/38 2/6/2 37/75/37
f 38/76/38 5/8/5 4/7/4
f 39/77/1 40/78/2 41/79/3
f 42/80/4 41/81/3 40/82/2
f 42/83/4 43/84/5 44/85/6
f 39/77/1 41/79/3 45/86/7
f 44/87/6 45/88/7 41/89/3
f 44/85/6 43/84/5 46/90/8
f 39/77/1 45/86/7 47/91/9
f 46/92/8 47/93/9 45/88/7
f 46/90/8 43/84/5 48/94/10
f 39/77/1 47/91/9 49/95/11
f 48/96/10 49/97/11 47/93/9
f 48/94/10 43/84/5 50/98/12
f 39/77/1 49/95/11 51/99/13
f 50/100/12 51/101/13 49/97/11
f 50/98/12 43/84/5 52/102/14
f 39/77/1 51/99/13 53/103/15
f 51/104/13 54/105/16 53/106/15
f 52/102/14 43/84/5 54/107/16
f 39/77/1 53/103/15 55/108/17
f 54/105/16 55/109/17 53/106/15
f 54/107/16 43/84/5 56/110/18
f 39/77/1 55/108/17 57/111/19
f 55/109/17 58/112/20 57/113/19
f 56/110/18 43/84/5 58/114/20
f 39/77/1 57/111/19 59/115/21
f 57/113/19 60/116/22 59/117/21
f 58/114/20 43/84/5 60/118/22
f 39/77/1 59/115/21 61/119/23
f 60/116/22 61/120/23 59/117/21
f 60/118/22 43/84/5 62/121/24
f 39/77/1 61/119/23 63/122/25
f 62/123/24 63/124/25 61/125/23
f 62/121/24 43/84/5 64/126/26
f 39/77/1 63/122/25 65/127/27
f 64/128/26 65/129/27 63/124/25
f 64/126/26 43/84/5 66/130/28
f 39/77/1 65/127/27 67/131/29
f 66/132/28 67/133/29 65/129/27
f 66/130/28 43/84/5 68/134/30
f 39/77/1 67/131/29 69/135/31
f 68/136/30 69/137/31 67/133/29
f 68/134/30 43/84/5 70/138/32
f 39/77/1 69/135/31 71/139/33
f 70/140/32 71/141/33 69/142/31
f 70/138/32 43/84/5 72/143/34
f 39/77/1 71/139/33 73/144/35
f 72/145/34 73/146/35 71/141/33
f 72/143/34 43/84/5 74/147/36
f 39/77/1 73/144/35 75/148/37
f 73/146/35 76/149/38 75/150/37
f 74/147/36 43/84/5 76/151/38
f 39/77/1 75/148/37 40/78/2
f 76/149/38 40/82/2 75/150/37
f 76/151/38 43/84/5 42/83/4
f 77/152/1 78/153/2 79/154/3
f 80/155/4 79/156/3 78/157/2
f 80/158/4 81/159/5 82/160/6
f 77/152/1 79/154/3 83/161/7
f 82/162/6 83/163/7 79/164/3
f 82/160/6 81/159/5 84/165/8
f 77/152/1 83/161/7 85/166/9
f 84/167/8 85/168/9 83/163/7
f 84/165/8 81/159/5 86/169/10
f 77/152/1 85/166/9 87/170/11
f 86/171/10 87/172/11 85/168/9
f 86/169/10 81/159/5 88/173/12
f 77/152/1 87/170/11 89/174/13
f 88/175/12 89/176/13 87/172/11
f 88/173/12 81/159/5 90/177/14
f 77/152/1 89/174/13 91/178/15
f 90/179/14 91/180/15 89/181/13
f 90/177/14 81/159/5 92/182/16
f 77/152/1 91/178/15 93/183/17
f 91/180/15 94/184/18 93/185/17
f 92/182/16 81/159/5 94/186/18
f 77/152/1 93/183/17 95/187/19
f 93/185/17 96/188/20 95/189/19
f 94/186/18 81/159/5 96/190/20
f 77/152/1 95/187/19 97/191/21
f 96/188/20 97/192/21 95/189/19
f 96/190/20 81/159/5 98/193/22
f 77/152/1 97/191/21 99/194/23
f 97/192/21 100/195/24 99/196/23
f 98/193/22 81/159/5 100/197/24
f 77/152/1 99/194/23 101/198/25
f 100/199/24 101/200/25 99/201/23
f 100/197/24 81/159/5 102/202/26
f 77/152/1 101/198/25 103/203/27
f 102/204/26 103/205/27 101/200/25
f 102/202/26 81/159/5 104/206/28
f 77/152/1 103/203/27 105/207/29
f 104/208/28 105/209/29 103/205/27
f 104/206/28 81/159/5 106/210/30
f 77/152/1 105/207/29 107/211/31
f 106/212/30 107/213/31 105/209/29
f 106/210/30 81/159/5 108/214/32
f 77/152/1 107/211/31 109/215/33
f 108/216/32 109/217/33 107/218/31
f 108/214/32 81/159/5 110/219/34
f 77/152/1 109/215/33 111/220/35
f 110/221/34 111/222/35 109/217/33
f 110/219/34 81/159/5 112/223/36
f 77/152/1 111/220/35 113/224/37
f 111/222/35 114/225/38 113/226/37
f 112/223/36 81/159/5 114/227/38
f 77/152/1 113/224/37 78/153/2
f 114/225/38 78/157/2 113/226/37
f 114/227/38 81/159/5 80/158/4
f 115/228/1 116/229/2 117/230/3
f 118/231/4 117/232/3 116/233/2
f 118/234/4 119/235/5 120/236/6
f 115/228/1 117/230/3 121/237/7
f 120/238/6 121/239/7 117/240/3
f 120/236/6 119/235/5 122/241/8
f 115/228/1 121/237/7 123/242/9
f 122/243/8 123/244/9 121/239/7
f 122/241/8 119/235/5 124/245/10
f 115/228/1 123/242/9 125/246/11
f 124/247/10 125/248/11 123/244/9
f 124/245/10 119/235/5 126/249/12
f 115/228/1 125/246/11 127/250/13
f 126/251/12 127/252/13 125/248/11
f 126/249/12 119/235/5 128/253/14
f 115/228/1 127/250/13 129/254/15
f 128/255/14 129/256/15 127/257/13
f 128/253/14 119/235/5 130/258/16
f 115/228/1 129/254/15 131/259/17
f 130/260/16 131/261/17 129/256/15
f 130/258/16 119/235/5 132/262/18
f 115/228/1 131/259/17 133/263/19
f 132/264/18 133/265/19 131/261/17
f 132/262/18 119/235/5 134/266/20
f 115/228/1 133/263/19 135/267/21
f 133/265/19 136/268/22 135/269/21
f 134/266/20 119/235/5 136/270/22
f 115/228/1 135/267/21 137/271/23
f 135/269/21 138/272/24 137/273/23
f 136/270/22 119/235/5 138/274/24
f 115/228/1 137/271/23 139/275/25
f 138/276/24 139/277/25 137/278/23
f 138/274/24 119/235/5 140/279/26
f 115/228/1 139/275/25 141/280/27
f 140/281/26 141/282/27 139/277/25
f 140/279/26 119/235/5 142/283/28
f 115/228/1 141/280/27 143/284/29
f 142/285/28 143/286/29 141/282/27
f 142/283/28 119/235/5 144/287/30
f 115/228/1 143/284/29 145/288/31
f 144/289/30 145/290/31 143/286/29
f 144/287/30 119/235/5 146/291/32
f 115/228/1 145/288/31 147/292/33
f 146/293/32 147/294/33 145/295/31
f 146/291/32 119/235/5 148/296/34
f 115/228/1 147/292/33 149/297/35
f 148/298/34 149/299/35 147/294/33
f 148/296/34 119/235/5 150/300/36
f 115/228/1 149/297/35 151/301/37
f 149/299/35 152/302/38 151/303/37
f 150/300/36 119/235/5 152/304/38
f 115/228/1 151/301/37 116/229/2
f 152/302/38 116/233/2 151/303/37
f 152/304/38 119/235/5 118/234/4
f 153/305/39 154/306/40 155/307/41
f 156/308/42 157/309/43 154/310/40
f 158/311/44 159/312/45 160/313/46
f 161/314/47 153/315/39 162/316/48
f 161/317/47 163/318/49 164/319/50
f 155/320/41 157/321/43 165/322/51
f 164/323/50 156/324/42 153/305/39
f 163/325/49 166/326/52 156/308/42
f 166/327/52 161/328/47 162/329/48
f 155/330/41 162/316/48 153/315/39
f 167/331/43 165/322/51 157/321/43
f 168/332/51 162/316/48 165/333/51
f 169/334/53 170/335/54 171/336/55
f 158/337/44 167/338/43 170/339/54
f 160/340/46 168/341/51 167/331/43
f 168/332/51 169/342/53 171/343/55
f 166/344/52 171/345/55 170/346/54
f 157/309/43 170/339/54 167/338/43
f 4/4/4 6/347/6 3/5/3
f 6/11/6 8/16/8 7/12/7
f 8/16/8 10/20/10 9/17/9
f 10/20/10 12/24/12 11/21/11
f 12/24/12 14/348/14 13/25/13
f 13/28/13 14/349/14 16/29/16
f 16/29/16 18/36/18 17/33/17
f 18/36/18 20/40/20 19/37/19
f 20/40/20 22/350/22 21/41/21
f 21/41/21 22/350/22 24/44/24
f 24/48/24 26/53/26 25/49/25
f 26/53/26 28/57/28 27/54/27
f 28/57/28 30/61/30 29/58/29
f 30/61/30 32/351/32 31/62/31
f 32/65/32 34/70/34 33/66/33
f 34/70/34 36/352/36 35/71/35
f 35/71/35 36/352/36 38/74/38
f 38/74/38 4/4/4 2/6/2
f 42/80/4 44/353/6 41/81/3
f 44/87/6 46/92/8 45/88/7
f 46/92/8 48/96/10 47/93/9
f 48/96/10 50/100/12 49/97/11
f 50/100/12 52/354/14 51/101/13
f 51/104/13 52/355/14 54/105/16
f 54/105/16 56/356/18 55/109/17
f 55/109/17 56/356/18 58/112/20
f 57/113/19 58/112/20 60/116/22
f 60/116/22 62/357/24 61/120/23
f 62/123/24 64/128/26 63/124/25
f 64/128/26 66/132/28 65/129/27
f 66/132/28 68/136/30 67/133/29
f 68/136/30 70/358/32 69/137/31
f 70/140/32 72/145/34 71/141/33
f 72/145/34 74/359/36 73/146/35
f 73/146/35 74/359/36 76/149/38
f 76/149/38 42/80/4 40/82/2
f 80/155/4 82/360/6 79/156/3
f 82/162/6 84/167/8 83/163/7
f 84/167/8 86/171/10 85/168/9
f 86/171/10 88/175/12 87/172/11
f 88/175/12 90/361/14 89/176/13
f 90/179/14 92/362/16 91/180/15
f 91/180/15 92/362/16 94/184/18
f 93/185/17 94/184/18 96/188/20
f 96/188/20 98/363/22 97/192/21
f 97/192/21 98/363/22 100/195/24
f 100/199/24 102/204/26 101/200/25
f 102/204/26 104/208/28 103/205/27
f 104/208/28 106/212/30 105/209/29
f 106/212/30 108/364/32 107/213/31
f 108/216/32 110/221/34 109/217/33
f 110/221/34 112/365/36 111/222/35
f 111/222/35 112/365/36 114/225/38
f 114/225/38 80/155/4 78/157/2
f 118/231/4 120/366/6 117/232/3
f 120/238/6 122/243/8 121/239/7
f 122/243/8 124/247/10 123/244/9
f 124/247/10 126/251/12 125/248/11
f 126/251/12 128/367/14 127/252/13
f 128/255/14 130/260/16 129/256/15
f 130/260/16 132/264/18 131/261/17
f 132/264/18 134/368/20 133/265/19
f 133/265/19 134/368/20 136/268/22
f 135/269/21 136/268/22 138/272/24
f 138/276/24 140/281/26 139/277/25
f 140/281/26 142/285/28 141/282/27
f 142/285/28 144/289/30 143/286/29
f 144/289/30 146/369/32 145/290/31
f 146/293/32 148/298/34 147/294/33
f 148/298/34 150/370/36 149/299/35
f 149/299/35 150/370/36 152/302/38
f 152/302/38 118/231/4 116/233/2
f 153/305/39 156/324/42 154/306/40
f 156/308/42 166/326/52 157/309/43
f 158/311/44 169/334/53 159/312/45
f 161/314/47 164/371/50 153/315/39
f 161/317/47 172/372/56 163/318/49
f 155/320/41 154/373/40 157/321/43
f 164/323/50 163/374/49 156/324/42
f 163/325/49 172/375/56 166/326/52
f 166/327/52 172/376/56 161/328/47
f 155/330/41 165/333/51 162/316/48
f 167/331/43 168/341/51 165/322/51
f 168/332/51 171/343/55 162/316/48
f 169/334/53 158/311/44 170/335/54
f 158/337/44 160/377/46 167/338/43
f 160/340/46 159/378/45 168/341/51
f 168/332/51 159/379/45 169/342/53
f 166/344/52 162/380/48 171/345/55
f 157/309/43 166/326/52 170/339/54
